solid OpenSCAD_Model
  facet normal 1 -0 0
    outer loop
      vertex 89.5 0 55
      vertex 89.5 239.2 0
      vertex 89.5 239.2 55
    endloop
  endfacet
  facet normal 1 0 0
    outer loop
      vertex 89.5 239.2 0
      vertex 89.5 0 55
      vertex 89.5 0 0
    endloop
  endfacet
  facet normal 0 0 1
    outer loop
      vertex 89.5 239.2 55
      vertex 87.5 237.2 55
      vertex 89.5 0 55
    endloop
  endfacet
  facet normal 0 0 1
    outer loop
      vertex 89.5 239.2 55
      vertex 2 237.2 55
      vertex 87.5 237.2 55
    endloop
  endfacet
  facet normal 0 0 1
    outer loop
      vertex 2 237.2 55
      vertex 0 239.2 55
      vertex 2 2 55
    endloop
  endfacet
  facet normal -0 0 1
    outer loop
      vertex 0 239.2 55
      vertex 2 237.2 55
      vertex 89.5 239.2 55
    endloop
  endfacet
  facet normal -0 0 1
    outer loop
      vertex 87.5 2 55
      vertex 89.5 0 55
      vertex 87.5 237.2 55
    endloop
  endfacet
  facet normal -0 0 1
    outer loop
      vertex 2 2 55
      vertex 89.5 0 55
      vertex 87.5 2 55
    endloop
  endfacet
  facet normal 0 0 1
    outer loop
      vertex 2 2 55
      vertex 0 0 55
      vertex 89.5 0 55
    endloop
  endfacet
  facet normal 0 0 1
    outer loop
      vertex 0 0 55
      vertex 2 2 55
      vertex 0 239.2 55
    endloop
  endfacet
  facet normal 0 0 -1
    outer loop
      vertex 0 0 0
      vertex 89.5 239.2 0
      vertex 89.5 0 0
    endloop
  endfacet
  facet normal -0 0 -1
    outer loop
      vertex 89.5 239.2 0
      vertex 0 0 0
      vertex 0 239.2 0
    endloop
  endfacet
  facet normal -1 0 0
    outer loop
      vertex 0 0 0
      vertex 0 239.2 55
      vertex 0 239.2 0
    endloop
  endfacet
  facet normal -1 -0 0
    outer loop
      vertex 0 239.2 55
      vertex 0 0 0
      vertex 0 0 55
    endloop
  endfacet
  facet normal 0 1 -0
    outer loop
      vertex 89.5 239.2 0
      vertex 0 239.2 55
      vertex 89.5 239.2 55
    endloop
  endfacet
  facet normal 0 1 0
    outer loop
      vertex 0 239.2 55
      vertex 89.5 239.2 0
      vertex 0 239.2 0
    endloop
  endfacet
  facet normal 0 -1 0
    outer loop
      vertex 0 0 0
      vertex 89.5 0 55
      vertex 0 0 55
    endloop
  endfacet
  facet normal 0 -1 -0
    outer loop
      vertex 89.5 0 55
      vertex 0 0 0
      vertex 89.5 0 0
    endloop
  endfacet
  facet normal -1 0 0
    outer loop
      vertex 87.5 2 2
      vertex 87.5 237.2 55
      vertex 87.5 237.2 2
    endloop
  endfacet
  facet normal -1 -0 0
    outer loop
      vertex 87.5 237.2 55
      vertex 87.5 2 2
      vertex 87.5 2 55
    endloop
  endfacet
  facet normal -0 0 1
    outer loop
      vertex 2 237.2 2
      vertex 87.5 2 2
      vertex 87.5 237.2 2
    endloop
  endfacet
  facet normal 0 0 1
    outer loop
      vertex 87.5 2 2
      vertex 2 237.2 2
      vertex 2 2 2
    endloop
  endfacet
  facet normal 1 -0 0
    outer loop
      vertex 2 2 55
      vertex 2 237.2 2
      vertex 2 237.2 55
    endloop
  endfacet
  facet normal 1 0 0
    outer loop
      vertex 2 237.2 2
      vertex 2 2 55
      vertex 2 2 2
    endloop
  endfacet
  facet normal 0 -1 0
    outer loop
      vertex 2 237.2 2
      vertex 87.5 237.2 55
      vertex 2 237.2 55
    endloop
  endfacet
  facet normal 0 -1 -0
    outer loop
      vertex 87.5 237.2 55
      vertex 2 237.2 2
      vertex 87.5 237.2 2
    endloop
  endfacet
  facet normal 0 1 -0
    outer loop
      vertex 87.5 2 2
      vertex 2 2 55
      vertex 87.5 2 55
    endloop
  endfacet
  facet normal 0 1 0
    outer loop
      vertex 2 2 55
      vertex 87.5 2 2
      vertex 2 2 2
    endloop
  endfacet
endsolid OpenSCAD_Model
